<?xml version="1.0" encoding="utf-8"?>
<!-- Generator: Adobe Illustrator 25.0.1, SVG Export Plug-In . SVG Version: 6.00 Build 0)  -->
<svg version="1.1" id="Capa_1" xmlns="http://www.w3.org/2000/svg" xmlns:xlink="http://www.w3.org/1999/xlink" x="0px" y="0px"
	 viewBox="0 0 71.4 69.2" style="enable-background:new 0 0 71.4 69.2;" xml:space="preserve">
<style type="text/css">
	.st0{fill:#7F322D;}
</style>
<g id="Capa_2_1_">
</g>
<g id="Layer_1" xmlns:cc="http://creativecommons.org/ns#" xmlns:dc="http://purl.org/dc/elements/1.1/" xmlns:inkscape="http://www.inkscape.org/namespaces/inkscape" xmlns:rdf="http://www.w3.org/1999/02/22-rdf-syntax-ns#" xmlns:sodipodi="http://sodipodi.sourceforge.net/DTD/sodipodi-0.dtd" xmlns:svg="http://www.w3.org/2000/svg">
	
		<sodipodi:namedview  bordercolor="#666666" borderopacity="1" fit-margin-bottom="0" fit-margin-left="0" fit-margin-right="0" fit-margin-top="0" gridtolerance="10" guidetolerance="10" id="namedview29" inkscape:current-layer="Layer_1" inkscape:cx="-71.668263" inkscape:cy="39.237696" inkscape:pageopacity="0" inkscape:pageshadow="2" inkscape:window-height="715" inkscape:window-maximized="1" inkscape:window-width="1366" inkscape:window-x="-8" inkscape:window-y="-8" inkscape:zoom="1.3588925" objecttolerance="10" pagecolor="#ffffff" showgrid="false">
		</sodipodi:namedview>
	<path class="st0" d="M69.9,7.8c-0.8-3.1-3.2-5.5-6.3-6.3C58.1,0,35.7,0,35.7,0S13.4,0,7.8,1.5c-3,0.8-5.5,3.3-6.3,6.4
		C0,13.4,0,25,0,25s0,11.6,1.5,17.2c0.8,3.1,3.2,5.5,6.3,6.3C13.4,50,35.7,50,35.7,50s22.4,0,27.9-1.5c3.1-0.8,5.5-3.2,6.3-6.3
		c1.5-5.6,1.5-17.2,1.5-17.2S71.5,13.4,69.9,7.8z M28.6,35.7V14.3L47.2,25L28.6,35.7z"/>
</g>
</svg>
